<?xml version="1.0" encoding="utf-8"?>
<!-- Generator: Adobe Illustrator 22.0.1, SVG Export Plug-In . SVG Version: 6.00 Build 0)  -->
<svg version="1.1" id="Cyclops" xmlns="http://www.w3.org/2000/svg" xmlns:xlink="http://www.w3.org/1999/xlink" x="0px" y="0px"
	 viewBox="0 0 166.7 207.2" style="enable-background:new 0 0 166.7 207.2;" xml:space="preserve">
<style type="text/css">
	.st0{fill:#2C2C2C;}
</style>
<path id="Head" class="st0" d="M157.8,84.5c-1-1.8-1.8-3.8-2.9-5.5c-3.9-6.1-8.7-11.6-14.3-16.2c-4.9-4.2-10.5-7.6-16.4-10.2
	c-12.8-5.6-26.7-8.4-40.7-8.3c-14-0.1-27.9,2.7-40.8,8.3c-6,2.6-11.5,6.1-16.5,10.2C20.6,67.4,15.8,72.9,11.8,79
	c-1.1,1.7-2,3.6-2.9,5.5C3.1,95.7,0,109.3,0,125.6c0,18.9,3.9,34.5,11.8,46.7c7.9,12.2,18.2,21.1,30.8,26.6
	c12.9,5.5,26.8,8.4,40.8,8.2c14,0.1,27.8-2.7,40.7-8.2c12.6-5.5,22.8-14.4,30.7-26.6c7.9-12.3,11.8-27.8,11.8-46.7
	C166.7,109.3,163.6,95.7,157.8,84.5z M134.8,159.5c-5.2,8-11.2,13.3-18.9,16.7c-10.2,4.4-21.2,6.6-32.3,6.5
	c-11.2,0.1-22.3-2.1-32.6-6.5c-7.8-3.4-13.9-8.7-19-16.7s-7.7-19.4-7.7-33.9c-0.1-6.5,0.6-12.9,1.9-19.2c1-5.1,3-10,5.7-14.4
	c1.7-2.6,3.7-5.1,5.9-7.4c3.7-3.9,8.2-7.1,13.2-9.2c10.3-4.4,21.4-6.6,32.6-6.5c11.1-0.1,22.1,2.1,32.3,6.5
	c4.9,2.2,9.4,5.3,13.1,9.3c2.2,2.3,4.2,4.7,5.9,7.4c2.7,4.4,4.7,9.3,5.7,14.4c1.3,6.3,2,12.8,1.9,19.2
	C142.5,140.1,139.9,151.5,134.8,159.5L134.8,159.5z"/>
<g id="Horns">
	<path id="LeftHorn" class="st0" d="M4,80c0.7-1.6,1.6-3.1,2.5-4.5C10.7,68.9,16,62.9,22,57.8c0.8-0.6,1.6-1.1,2.4-1.7
		c0.3-12,0.9-27.2,1.7-30.9c1-5.1,3-10,5.7-14.4c1.7-2.6,3.7-5.1,6-7.4c1.2-1.2,2.5-2.3,3.9-3.4c-5.6,2.5-10.8,5.8-15.5,9.7
		C20.6,14.5,15.8,20,11.8,26.1c-1.1,1.7-2,3.6-2.9,5.5C3.1,42.8,0,56.4,0,72.7c0,4.8,0.3,9.6,0.9,14.3c0.8-1.8,1.5-3.7,2.4-5.5L4,80
		z"/>
	<path id="RightHorn" class="st0" d="M160.2,75.5c0.9,1.5,1.8,3,2.5,4.6l0.7,1.5c0.9,1.7,1.6,3.6,2.4,5.5c0.6-4.8,0.9-9.6,0.9-14.3
		c0-16.2-3.1-29.8-8.9-41.1c-1-1.8-1.8-3.8-2.9-5.5c-3.9-6.1-8.7-11.6-14.3-16.3c-4.7-4-10-7.3-15.6-9.8c1.4,1.1,2.7,2.3,4,3.5
		c2.2,2.3,4.2,4.7,5.9,7.4c2.7,4.4,4.7,9.3,5.7,14.4c0.8,3.7,1.4,18.8,1.7,30.8c0.8,0.6,1.6,1.1,2.4,1.8
		C150.7,62.9,155.9,68.9,160.2,75.5z"/>
</g>
</svg>
